HIERARCHY
ROOT Hips
{
	OFFSET -3.958830 18.904000 13.208200
	CHANNELS 6 Xposition Yposition Zposition Zrotation Yrotation Xrotation 
	JOINT LHipJoint
	{
		OFFSET 0.000000 0.000000 0.000000
		CHANNELS 3 Zrotation Yrotation Xrotation
		JOINT LeftUpLeg
		{
			OFFSET 1.800000 -1.400000 0.085000
			CHANNELS 3 Zrotation Yrotation Xrotation
			JOINT LeftLeg
			{
				OFFSET 2.215000 -6.000000 0.000000
				CHANNELS 3 Zrotation Yrotation Xrotation
				JOINT LeftFoot
				{
					OFFSET 2.500000 -6.900000 0.000000
					CHANNELS 3 Zrotation Yrotation Xrotation
					JOINT LeftToeBase
					{
						OFFSET 0.200000 -0.500000 1.950000
						CHANNELS 3 Zrotation Yrotation Xrotation
						End Site
						{
							OFFSET 0.000000 0.000000 0.000000
						}
					}
				}
			}
		}
	}
	JOINT RHipJoint
	{
		OFFSET 0.000000 0.000000 0.000000
		CHANNELS 3 Zrotation Yrotation Xrotation
		JOINT RightUpLeg
		{
			OFFSET -1.800000 -1.400000 0.085000
			CHANNELS 3 Zrotation Yrotation Xrotation
			JOINT RightLeg
			{
				OFFSET -2.215000 -6.000000 0.000000
				CHANNELS 3 Zrotation Yrotation Xrotation
				JOINT RightFoot
				{
					OFFSET -2.500000 -6.900000 0.000000
					CHANNELS 3 Zrotation Yrotation Xrotation
					JOINT RightToeBase
					{
						OFFSET -0.200000 -0.500000 1.950000
						CHANNELS 3 Zrotation Yrotation Xrotation
						End Site
						{
							OFFSET 0.000000 0.000000 0.000000
						}
					}
				}
			}
		}
	}
	JOINT LowerBack
	{
		OFFSET 0.000000 0.000000 0.000000
		CHANNELS 3 Zrotation Yrotation Xrotation
		JOINT Spine
		{
			OFFSET -0.087000 1.940000 -0.288900
			CHANNELS 3 Zrotation Yrotation Xrotation
			JOINT Spine1
			{
				OFFSET 0.000000 1.950000 0.060000
				CHANNELS 3 Zrotation Yrotation Xrotation
				JOINT Neck
				{
					OFFSET 0.000000 0.000000 0.000000
					CHANNELS 3 Zrotation Yrotation Xrotation
					JOINT Neck1
					{
						OFFSET 0.000000 1.600000 0.340000
						CHANNELS 3 Zrotation Yrotation Xrotation
						JOINT Head
						{
							OFFSET 0.000000 1.667000 -0.240000
							CHANNELS 3 Zrotation Yrotation Xrotation
							End Site
							{
								OFFSET 0.000000 0.000000 0.000000
							}
						}
					}
				}
				JOINT LeftShoulder
				{
					OFFSET 0.000000 0.000000 0.000000
					CHANNELS 3 Zrotation Yrotation Xrotation
					JOINT LeftArm
					{
						OFFSET 2.700000 1.550000 -0.730000
						CHANNELS 3 Zrotation Yrotation Xrotation
						JOINT LeftForeArm
						{
							OFFSET 5.450000 0.000000 0.000000
							CHANNELS 3 Zrotation Yrotation Xrotation
							JOINT LeftHand
							{
								OFFSET 3.450000 0.000000 0.000000
								CHANNELS 3 Zrotation Yrotation Xrotation
								JOINT LeftHandIndex1
								{
									OFFSET 0.750000 0.000000 0.000000
									CHANNELS 3 Zrotation Yrotation Xrotation
									End Site
									{
										OFFSET 0.000000 0.000000 0.000000
									}
								}
							}
						}
					}
				}
				JOINT RightShoulder
				{
					OFFSET 0.000000 0.000000 0.000000
					CHANNELS 3 Zrotation Yrotation Xrotation
					JOINT RightArm
					{
						OFFSET -2.700000 1.550000 -0.730000
						CHANNELS 3 Zrotation Yrotation Xrotation
						JOINT RightForeArm
						{
							OFFSET -5.450000 0.000000 0.000000
							CHANNELS 3 Zrotation Yrotation Xrotation
							JOINT RightHand
							{
								OFFSET -3.450000 0.000000 0.000000
								CHANNELS 3 Zrotation Yrotation Xrotation
								JOINT RightHandIndex1
								{
									OFFSET -0.750000 0.000000 0.000000
									CHANNELS 3 Zrotation Yrotation Xrotation
									End Site
									{
										OFFSET 0.000000 0.000000 0.000000
									}
								}
							}
						}
					}
				}
			}
		}
	}
}
MOTION
Frames: 4
Frame Time: 0.016667
-0.863980 17.782500 0.968050 -19.868531 -20.219941 -8.405538 -14.672246 11.355706 1.558848 17.256886 1.935882 -30.242647 22.189572 1.093165 38.139821 -0.513272 6.693762 1.886132 0.042950 -0.001370 -0.150810 19.110219 -9.087714 6.406401 -19.140574 19.970493 -44.054323 65.474541 -49.383634 52.758617 -3.327499 -14.182929 -0.139930 0.078420 0.250950 0.005050 -5.921506 1.644075 -8.766606 9.722025 -12.256734 61.227078 -25.830787 -1.561028 9.137488 5.022842 -13.721894 -17.696306 -33.575548 15.556261 27.925708 4.011150 -0.911440 -34.823790 -6.739484 -22.409056 8.814551 -19.472800 7.435117 -15.014765 45.612948 -33.732511 -16.078179 -3.550120 2.524512 0.925730 -0.279210 0.191820 -0.042910 -1.640371 31.627658 8.676320 18.986823 9.167743 -27.088927 -76.253975 63.558673 -49.975101 1.231191 0.561538 -0.411750 0.733750 0.502640 -0.050170 
-0.878430 17.758590 0.972790 -18.991339 -19.907788 -8.779311 -14.673150 11.347160 1.599688 17.213832 1.809364 -30.407562 21.410704 1.410012 38.977170 -0.524444 6.806853 1.853994 0.025560 -0.030100 -0.168360 19.103628 -9.110490 6.371533 -20.524339 19.013084 -43.097457 67.067642 -49.225223 51.121202 -3.244921 -13.936907 -0.089008 0.079740 0.279010 -0.001130 -5.895600 1.625237 -8.758654 9.061061 -11.651808 61.308314 -25.488365 -1.653615 9.092455 4.802898 -13.868294 -17.412944 -33.408028 15.311209 26.822553 4.154340 -1.111700 -33.995970 -6.464242 -21.524944 8.721770 -19.606211 7.503204 -14.549371 45.440561 -33.162671 -15.711380 -3.564997 2.522873 0.915900 -0.260430 0.161540 -0.040620 -1.454699 30.730641 8.602385 17.926853 7.777108 -26.585142 -77.840485 63.549224 -50.945588 1.204033 0.607195 -0.435140 0.741990 0.517300 -0.053140 
-0.908740 17.704390 0.980380 -17.526522 -19.743375 -9.217262 -14.692173 11.292375 1.753341 17.656225 1.790162 -31.265081 19.524474 2.381455 41.014455 -0.504724 7.120287 1.744184 -0.011930 -0.072360 -0.228070 19.082247 -9.123702 6.259350 -22.887212 17.627938 -40.905558 69.406808 -48.060937 47.969183 -3.078262 -13.478083 0.017574 0.075120 0.335000 0.001540 -5.832166 1.585709 -8.766572 8.005450 -10.301024 61.109219 -24.907113 -1.395446 9.127475 4.585229 -14.087561 -17.042658 -33.092731 14.637098 25.130948 4.319140 -1.705810 -31.979180 -5.508025 -19.562286 8.429108 -20.681242 7.132076 -13.819181 45.276210 -32.900875 -15.484706 -3.586181 2.531778 0.872140 -0.210960 0.103800 -0.030940 -1.933045 28.996819 8.646013 16.608539 5.272342 -25.594762 -81.055021 62.520785 -52.667959 1.201820 0.561123 -0.452190 0.735620 0.545620 -0.041640 
-0.943240 17.632130 0.992980 -15.688110 -20.211172 -9.882833 -14.746295 11.237941 1.998232 18.997838 2.105789 -32.176210 16.438037 4.265926 44.048531 -0.441181 7.698357 1.540969 -0.052900 -0.115270 -0.277100 19.028412 -9.085330 6.078901 -25.375660 16.734289 -37.704712 70.089832 -45.477704 45.064065 -2.884416 -12.999805 0.119925 0.072890 0.406220 -0.008740 -5.698089 1.437035 -8.805046 6.383872 -8.013309 60.708732 -23.441278 -0.505204 9.024558 4.015493 -14.162989 -16.560920 -32.327124 14.391634 23.819322 5.365040 -1.878070 -29.434830 -4.677758 -17.531900 8.157631 -22.505911 6.663882 -13.184889 45.023043 -33.018913 -15.438585 -3.606376 2.524650 0.818400 -0.158560 0.039110 -0.025940 -1.675283 27.392408 8.531441 14.324628 2.720663 -24.592160 -82.072432 62.572045 -52.888633 1.175715 0.562392 -0.477300 0.744130 0.570590 -0.026660 
